<?xml version="1.0" encoding="UTF-8" standalone="no"?>
<!-- Created with Inkscape (http://www.inkscape.org/) -->

<svg
   width="427.51929"
   height="506.80743"
   viewBox="0 0 113.11447 134.0928"
   version="1.1"
   id="svg1"
   xml:space="preserve"
   xmlns="http://www.w3.org/2000/svg"
   xmlns:svg="http://www.w3.org/2000/svg"><defs
     id="defs1" /><g
     id="layer1"
     transform="translate(-110.06661,-23.816275)"><g
       id="g5"><path
         style="fill:none;stroke:#000000;stroke-width:0.79375;stroke-linecap:round;stroke-linejoin:round"
         d="m 131.23333,155.70729 c 2.1613,1.31022 5.07761,-0.22681 7.54063,-0.79375 3.15379,-0.72595 6.22077,-1.88576 9.12812,-3.30729 2.52795,-1.23603 4.47261,-3.6129 7.14375,-4.49792 2.68717,-0.89033 5.70645,-1.28975 8.46667,-0.66146 2.48531,0.56571 4.95076,1.90553 6.61458,3.83646 1.64101,1.90445 0.4868,5.97722 2.77813,7.01146 2.13588,0.96408 4.43424,-1.52245 6.61458,-2.38125 1.87481,-0.73846 3.5984,-1.90473 5.55625,-2.38125 2.36278,-0.57507 4.8486,-0.38447 7.27604,-0.52917 1.89487,-0.11295 4.20176,0.91557 5.68854,-0.26458 1.65102,-1.31052 1.85125,-3.9816 1.71979,-6.08542 -0.0776,-1.24249 -1.1305,-2.23776 -1.4552,-3.43958 -0.45223,-1.67385 -0.8615,-3.43709 -0.66146,-5.15938 0.17387,-1.497 0.83573,-2.92716 1.5875,-4.23333 0.62527,-1.08639 1.25373,-2.36277 2.38125,-2.91041 2.06301,-1.00202 4.99508,1.17548 6.87916,-0.1323 1.67502,-1.16266 1.46247,-3.80734 2.24896,-5.68854 0.6321,-1.51192 1.89461,-2.86164 1.98438,-4.49791 0.14439,-2.63194 -1.20382,-5.18233 -2.38125,-7.54063 -1.01668,-2.03634 -2.61996,-3.72292 -3.96875,-5.55625 -1.08189,-1.47054 -1.96345,-3.12988 -3.30729,-4.36562 -1.15266,-1.05994 -2.62616,-1.7076 -3.96875,-2.513546 -1.91334,-1.148556 -3.80143,-2.357534 -5.82084,-3.307292 -1.23767,-0.582097 -2.93823,-0.423777 -3.83646,-1.455208 -1.03975,-1.19393 -0.59379,-3.116688 -1.05833,-4.630208 -0.49978,-1.628344 -1.09914,-3.234637 -1.85208,-4.7625 -0.75219,-1.526328 -1.48751,-3.11914 -2.64584,-4.365625 -1.65754,-1.783684 -3.83783,-3.027295 -5.95312,-4.233334 -1.88646,-1.075571 -3.97168,-1.757337 -5.95313,-2.645833 -1.85484,-0.831723 -3.53108,-2.337782 -5.55625,-2.513542 -1.58764,-0.137788 -3.18329,0.522751 -4.6302,1.190625 -1.32185,0.610151 -2.43346,1.60603 -3.57188,2.513542 -0.92781,0.739618 -1.54755,1.932193 -2.64583,2.38125 -1.87936,0.768424 -4.05553,0.309813 -6.08542,0.264583 -1.50476,-0.03353 -3.07526,-0.888264 -4.49792,-0.396875 -0.91413,0.315743 -1.55635,1.196093 -2.11666,1.984375 -0.50324,0.707988 -0.86555,1.5343 -1.05834,2.38125 -0.33292,1.462542 -0.0814,2.998826 -0.13229,4.497917 -0.0389,1.146715 0.11431,2.319022 -0.13229,3.439583 -0.24642,1.119734 -0.74537,2.184562 -1.32292,3.175 -0.75981,1.303006 -1.66875,2.549902 -2.77812,3.571875 -1.00751,0.928133 -2.32109,1.458081 -3.43958,2.248958 -1.72112,1.216995 -3.09428,2.995275 -5.02709,3.836455 -1.68178,0.73192 -3.85212,-0.0192 -5.42395,0.92605 -1.67049,1.00455 -2.46904,3.0229 -3.57188,4.6302 -0.81724,1.19107 -1.57148,2.42842 -2.24896,3.70417 -0.84215,1.58583 -1.79271,3.15815 -2.24896,4.89479 -0.40478,1.54072 -0.57391,3.17937 -0.39687,4.7625 0.1953,1.74638 0.9928,3.37352 1.5875,5.02709 0.67619,1.88015 1.2623,3.8188 2.24896,5.55624 0.90153,1.58753 2.03352,3.05777 3.30729,4.36563 0.98502,1.01139 2.36548,1.59409 3.30729,2.64583 1.04463,1.16655 1.81013,2.56971 2.51354,3.96875 0.5518,1.0975 1.11882,2.22826 1.32292,3.43959 0.21993,1.30525 -0.35795,2.66448 -0.13229,3.96875 0.30713,1.77515 0.44382,4.09317 1.98437,5.02708 z"
         id="path1" /><path
         style="fill:none;stroke:#000000;stroke-width:0.79375;stroke-linecap:round;stroke-linejoin:round"
         d="m 190.23541,77.522916 c -0.52843,1.456144 -0.41635,3.081269 -0.39687,4.630208 0.0151,1.197857 0.21625,2.387618 0.39687,3.571875 0.24384,1.598745 0.25474,3.291178 0.92605,4.7625 0.53461,1.171712 1.37542,2.238336 2.38125,3.042708 1.44808,1.158039 3.32764,1.639707 5.02708,2.38125 1.95887,0.854745 3.86124,1.943299 5.95312,2.38125 2.67741,0.560535 5.64705,1.241548 8.20209,0.264583 2.56366,-0.980259 4.20661,-3.57125 5.95312,-5.688541 1.40105,-1.698488 2.89885,-3.459863 3.57188,-5.55625 0.80978,-2.522339 0.47207,-5.289429 0.39687,-7.9375 -0.0705,-2.482577 -0.21075,-4.994153 -0.79375,-7.408333 -0.57672,-2.388163 -1.77713,-4.581063 -2.64583,-6.879167 -0.58216,-1.54007 -0.52774,-2.457504 -1.52135,-3.770312 -1.03797,-1.371419 -2.77507,-2.771223 -4.36563,-3.902604 -1.47984,-1.052633 -3.0163,-2.147069 -4.7625,-2.645834 -1.71935,-0.491096 -3.6974,-0.928196 -5.35781,-0.264583 -1.18749,0.474602 -1.90181,1.738027 -2.64584,2.778125 -0.66558,0.930429 -1.13458,1.992206 -1.5875,3.042708 -0.48035,1.114134 -0.55696,2.404932 -1.19062,3.439584 -0.83071,1.356391 -2.30217,2.206859 -3.30729,3.439583 -0.54107,0.663587 -1.05624,1.359088 -1.45521,2.116666 -0.5724,1.086895 -1.00723,2.252436 -1.32292,3.439584 -0.29812,1.121055 -0.0971,2.363045 -0.52916,3.439583 -0.2005,0.499541 -0.74243,0.816928 -0.92605,1.322917 z"
         id="path2" /><path
         style="fill:none;stroke:#000000;stroke-width:0.79375;stroke-linecap:round;stroke-linejoin:round"
         d="m 179.25521,24.60625 c 1.68573,-0.521124 3.6701,-0.563249 5.29166,0.132291 1.37551,0.590002 2.09291,2.140974 3.175,3.175 0.99294,0.948836 2.09006,1.788844 3.04271,2.778125 1.04179,1.08184 1.99683,2.247502 2.91042,3.439584 0.84824,1.10682 1.7518,2.195253 2.38125,3.439583 0.67354,1.331491 1.02251,2.805293 1.45521,4.233333 0.50247,1.658292 0.98343,3.327918 1.32291,5.027083 0.25292,1.265909 0.49922,2.545879 0.52917,3.836459 0.0339,1.460816 -0.12635,2.929677 -0.39688,4.365625 -0.32298,1.71433 -0.6493,3.479905 -1.4552,5.027083 -0.81129,1.557526 -2.10277,2.823073 -3.3073,4.101042 -0.89927,0.9541 -1.70967,2.119327 -2.91041,2.645833 -1.82451,0.800018 -3.96208,0.596834 -5.95313,0.529166 -2.54321,-0.08643 -5.12731,-0.38357 -7.54062,-1.190625 -2.22634,-0.744529 -4.45236,-1.759896 -6.21771,-3.307291 -1.42632,-1.250222 -2.47884,-2.924008 -3.30729,-4.630208 -0.96305,-1.983418 -1.27592,-4.221751 -1.85209,-6.35 -0.42761,-1.579499 -1.05698,-3.131609 -1.19062,-4.7625 -0.17706,-2.160709 0.1825,-4.342238 0.52917,-6.482292 0.32666,-2.016514 0.5315,-4.131091 1.4552,-5.953125 0.65102,-1.284165 1.72944,-2.320805 2.77813,-3.307291 1.07923,-1.015217 2.37558,-1.771596 3.57187,-2.645834 1.88732,-1.37923 3.45526,-3.410644 5.68855,-4.101041 z"
         id="path3" /><path
         style="fill:none;stroke:#000000;stroke-width:0.79375;stroke-linecap:round;stroke-linejoin:round"
         d="m 146.31458,29.765625 c 2.89067,-0.628144 6.00297,0.444242 8.73125,1.5875 2.18905,0.917302 4.21883,2.349761 5.82083,4.101041 0.65345,0.714341 1.039,1.63944 1.45521,2.513542 0.42602,0.894714 0.74554,1.837824 1.05834,2.778125 0.304,0.913861 0.59095,1.83662 0.79375,2.778125 0.3191,1.481454 0.609,2.983394 0.66145,4.497916 0.0398,1.149226 -0.22045,2.290516 -0.26458,3.439584 -0.0728,1.894784 0,3.792361 0,5.688541 0,1.896181 0.17029,3.800023 0,5.688542 -0.13283,1.473089 -0.32603,2.96246 -0.79375,4.365625 -0.31182,0.935444 -0.72984,1.85809 -1.32292,2.645833 -0.90101,1.196747 -2.07407,2.192298 -3.30729,3.042708 -1.05527,0.727702 -2.2218,1.31959 -3.43958,1.719792 -2.21082,0.726548 -4.55222,1.220896 -6.87917,1.190625 -2.24833,-0.02925 -4.63211,-0.261932 -6.61458,-1.322917 -1.04469,-0.559102 -1.71575,-1.637464 -2.51354,-2.513541 -1.34953,-1.48197 -2.66894,-3.000986 -3.83646,-4.630209 -1.17625,-1.6414 -2.51606,-3.250567 -3.175,-5.159374 -0.63722,-1.845873 -0.48763,-3.875821 -0.66146,-5.820834 -0.18096,-2.024711 -0.59524,-4.062337 -0.39687,-6.085416 0.13361,-1.362611 0.52452,-2.707956 1.05833,-3.96875 0.60151,-1.420681 1.52837,-2.68316 2.38125,-3.96875 0.78503,-1.183316 1.60531,-2.347968 2.51354,-3.439583 0.6983,-0.839287 1.60742,-1.497822 2.24896,-2.38125 0.64934,-0.894171 0.90919,-2.038016 1.5875,-2.910417 0.51712,-0.665093 1.19598,-1.191301 1.85208,-1.719792 0.96218,-0.775044 1.83538,-1.854312 3.04271,-2.116666 z"
         id="path4" /><path
         style="fill:none;stroke:#000000;stroke-width:0.79375;stroke-linecap:round;stroke-linejoin:round"
         d="m 125.80937,59.134374 c 1.39686,0.104108 2.56422,1.17039 3.70417,1.984375 0.68563,0.489572 1.30599,1.078268 1.85208,1.719792 0.61836,0.726424 1.0456,1.596135 1.5875,2.38125 0.64644,0.936586 1.36858,1.821112 1.98438,2.778125 0.71625,1.113121 1.40258,2.250644 1.98437,3.439583 0.56508,1.154801 1.04279,2.354177 1.45521,3.571875 0.48387,1.428641 0.94078,2.878104 1.19063,4.365625 0.21962,1.307537 0.18371,2.645365 0.26458,3.96875 0.097,1.586988 0.52603,3.194196 0.26458,4.7625 -0.25046,1.502376 -0.9658,2.909944 -1.71979,4.233333 -0.68547,1.203111 -1.5604,2.302867 -2.51354,3.307292 -1.03382,1.089451 -2.18574,2.083635 -3.43958,2.910416 -1.48174,0.977055 -3.0659,1.85996 -4.7625,2.38125 -1.27576,0.39199 -2.63495,0.5762 -3.96875,0.52917 -1.5298,-0.0539 -3.02562,-0.50706 -4.49792,-0.92604 -1.35524,-0.38567 -2.9093,-0.52626 -3.96875,-1.455213 -0.78603,-0.689209 -0.93842,-1.869402 -1.45521,-2.778125 -0.6655,-1.170229 -1.65084,-2.176515 -2.11666,-3.439583 -0.4942,-1.340007 -0.47231,-2.817681 -0.66146,-4.233333 -0.21154,-1.5832 -0.53432,-3.165239 -0.52917,-4.7625 0.005,-1.509638 0.24398,-3.015453 0.52917,-4.497917 0.2243,-1.165975 0.61873,-2.292687 0.92604,-3.439583 0.35436,-1.322494 0.63419,-2.666958 1.05833,-3.96875 0.4541,-1.393749 0.87649,-2.819165 1.5875,-4.101042 0.64168,-1.156875 1.49943,-2.188841 2.38125,-3.175 0.68621,-0.767404 1.44691,-1.47129 2.24896,-2.116666 0.79093,-0.636432 1.63251,-1.21541 2.51354,-1.719792 0.71902,-0.411633 1.48311,-0.742244 2.24896,-1.058333 0.60597,-0.250102 1.19834,-0.710182 1.85208,-0.661459 z"
         id="path5" /></g></g></svg>
